<svg xmlns="http://www.w3.org/2000/svg" xmlns:xlink="http://www.w3.org/1999/xlink" contentStyleType="text/css" data-diagram-type="CLASS" height="1034px" preserveAspectRatio="none" style="width:1150px;height:1034px;background:#FFFFFF;" version="1.1" viewBox="0 0 1150 1034" width="1150px" zoomAndPan="magnify"><defs/><g><!--cluster Domain--><g class="cluster" data-entity="Domain" data-source-line="33" data-uid="ent0002" id="cluster_Domain"><rect fill="#D9D3D0" height="311.24" rx="6" ry="6" style="stroke:#9275B6;stroke-width:1;" width="311" x="256.84" y="604.85"/><text fill="#9275B6" font-family="Verdana" font-size="12" font-weight="bold" lengthAdjust="spacing" textLength="51.4629" x="386.6086" y="617.9887">Domain</text></g><!--cluster Persistence--><g class="cluster" data-entity="Persistence" data-source-line="61" data-uid="ent0008" id="cluster_Persistence"><rect fill="#D9D3D0" height="117.61" rx="6" ry="6" style="stroke:#9275B6;stroke-width:1;" width="810" x="100.84" y="463.24"/><text fill="#9275B6" font-family="Verdana" font-size="12" font-weight="bold" lengthAdjust="spacing" textLength="78.9199" x="466.38" y="476.3787">Persistence</text></g><!--cluster Services--><g class="cluster" data-entity="Services" data-source-line="78" data-uid="ent0015" id="cluster_Services"><rect fill="#D9D3D0" height="272.83" rx="6" ry="6" style="stroke:#9275B6;stroke-width:1;" width="577" x="171.84" y="166.41"/><text fill="#9275B6" font-family="Verdana" font-size="12" font-weight="bold" lengthAdjust="spacing" textLength="57.0293" x="431.8254" y="179.5487">Services</text></g><!--cluster Web (Controllers)--><g class="cluster" data-entity="Web .Controllers." data-source-line="101" data-uid="ent0023" id="cluster_Web .Controllers."><rect fill="#D9D3D0" height="130.41" rx="6" ry="6" style="stroke:#9275B6;stroke-width:1;" width="570" x="61.84" y="12"/><text fill="#9275B6" font-family="Verdana" font-size="12" font-weight="bold" lengthAdjust="spacing" textLength="120.0293" x="286.8254" y="25.1387">Web (Controllers)</text></g><!--class Room--><g class="entity" data-entity="Room" data-source-line="34" data-uid="ent0003" id="entity_Room"><rect fill="#F8FAFF" height="95.2188" rx="6" ry="6" style="stroke:#3F51B5;stroke-width:1;" width="125.3955" x="273.14" y="643.25"/><ellipse cx="316.1786" cy="657.25" fill="#D9D3D0" rx="9" ry="9" style="stroke:#9275B6;stroke-width:1;"/><path d="M318.0067,661.5 Q317.6004,661.7031 317.1473,661.8125 Q316.6942,661.9219 316.2098,661.9219 Q314.4286,661.9219 313.4911,660.7656 Q312.5692,659.5938 312.5692,657.3906 Q312.5692,655.1719 313.4911,654.0156 Q314.4286,652.8438 316.2098,652.8438 Q316.6942,652.8438 317.1473,652.9531 Q317.6161,653.0469 318.0067,653.2656 L318.0067,655.1875 Q317.5692,654.7813 317.1473,654.5938 Q316.7254,654.3906 316.2879,654.3906 Q315.3348,654.3906 314.8504,655.1563 Q314.3661,655.9063 314.3661,657.3906 Q314.3661,658.8594 314.8504,659.6094 Q315.3348,660.3594 316.2879,660.3594 Q316.7254,660.3594 317.1473,660.1719 Q317.5692,659.9844 318.0067,659.5781 L318.0067,661.5 Z " fill="#9275B6"/><text fill="#9275B6" font-family="Verdana" font-size="11" lengthAdjust="spacing" textLength="31.8184" x="333.6786" y="661.0581">Room</text><line style="stroke:#3F51B5;stroke-width:1;" x1="274.14" x2="397.5355" y1="671.25" y2="671.25"/><ellipse cx="284.14" cy="683.1523" fill="none" rx="3" ry="3" style="stroke:#9275B6;stroke-width:1;"/><text fill="#9275B6" font-family="Verdana" font-size="11" lengthAdjust="spacing" textLength="44.0537" x="291.14" y="685.4604">id: Long</text><ellipse cx="284.14" cy="695.957" fill="none" rx="3" ry="3" style="stroke:#9275B6;stroke-width:1;"/><text fill="#9275B6" font-family="Verdana" font-size="11" lengthAdjust="spacing" textLength="64.6035" x="291.14" y="698.2651">type: String</text><ellipse cx="284.14" cy="708.7617" fill="none" rx="3" ry="3" style="stroke:#9275B6;stroke-width:1;"/><text fill="#9275B6" font-family="Verdana" font-size="11" lengthAdjust="spacing" textLength="73.5571" x="291.14" y="711.0698">price: Double</text><ellipse cx="284.14" cy="721.5664" fill="none" rx="3" ry="3" style="stroke:#9275B6;stroke-width:1;"/><text fill="#9275B6" font-family="Verdana" font-size="11" lengthAdjust="spacing" textLength="101.3955" x="291.14" y="723.8745">available: Boolean</text><line style="stroke:#3F51B5;stroke-width:1;" x1="274.14" x2="397.5355" y1="730.4688" y2="730.4688"/></g><!--class Customer--><g class="entity" data-entity="Customer" data-source-line="41" data-uid="ent0004" id="entity_Customer"><rect fill="#F8FAFF" height="108.0234" rx="6" ry="6" style="stroke:#3F51B5;stroke-width:1;" width="118.2573" x="433.71" y="636.85"/><ellipse cx="463.2816" cy="650.85" fill="#D9D3D0" rx="9" ry="9" style="stroke:#9275B6;stroke-width:1;"/><path d="M465.1097,655.1 Q464.7034,655.3031 464.2503,655.4125 Q463.7972,655.5219 463.3128,655.5219 Q461.5316,655.5219 460.5941,654.3656 Q459.6722,653.1938 459.6722,650.9906 Q459.6722,648.7719 460.5941,647.6156 Q461.5316,646.4438 463.3128,646.4438 Q463.7972,646.4438 464.2503,646.5531 Q464.7191,646.6469 465.1097,646.8656 L465.1097,648.7875 Q464.6722,648.3813 464.2503,648.1938 Q463.8284,647.9906 463.3909,647.9906 Q462.4378,647.9906 461.9534,648.7563 Q461.4691,649.5063 461.4691,650.9906 Q461.4691,652.4594 461.9534,653.2094 Q462.4378,653.9594 463.3909,653.9594 Q463.8284,653.9594 464.2503,653.7719 Q464.6722,653.5844 465.1097,653.1781 L465.1097,655.1 Z " fill="#9275B6"/><text fill="#9275B6" font-family="Verdana" font-size="11" lengthAdjust="spacing" textLength="53.4316" x="478.9641" y="654.6581">Customer</text><line style="stroke:#3F51B5;stroke-width:1;" x1="434.71" x2="550.9673" y1="664.85" y2="664.85"/><ellipse cx="444.71" cy="676.7523" fill="none" rx="3" ry="3" style="stroke:#9275B6;stroke-width:1;"/><text fill="#9275B6" font-family="Verdana" font-size="11" lengthAdjust="spacing" textLength="44.0537" x="451.71" y="679.0604">id: Long</text><ellipse cx="444.71" cy="689.557" fill="none" rx="3" ry="3" style="stroke:#9275B6;stroke-width:1;"/><text fill="#9275B6" font-family="Verdana" font-size="11" lengthAdjust="spacing" textLength="89.4395" x="451.71" y="691.8651">fullName: String</text><ellipse cx="444.71" cy="702.3617" fill="none" rx="3" ry="3" style="stroke:#9275B6;stroke-width:1;"/><text fill="#9275B6" font-family="Verdana" font-size="11" lengthAdjust="spacing" textLength="70.3667" x="451.71" y="704.6698">email: String</text><ellipse cx="444.71" cy="715.1664" fill="none" rx="3" ry="3" style="stroke:#9275B6;stroke-width:1;"/><text fill="#9275B6" font-family="Verdana" font-size="11" lengthAdjust="spacing" textLength="74.4541" x="451.71" y="717.4745">phone: String</text><ellipse cx="444.71" cy="727.9711" fill="none" rx="3" ry="3" style="stroke:#9275B6;stroke-width:1;"/><text fill="#9275B6" font-family="Verdana" font-size="11" lengthAdjust="spacing" textLength="94.2573" x="451.71" y="730.2792">idNumber: String</text><line style="stroke:#3F51B5;stroke-width:1;" x1="434.71" x2="550.9673" y1="736.8734" y2="736.8734"/></g><!--class Reservation--><g class="entity" data-entity="Reservation" data-source-line="49" data-uid="ent0005" id="entity_Reservation"><rect fill="#F8FAFF" height="95.2188" rx="6" ry="6" style="stroke:#3F51B5;stroke-width:1;" width="138.3452" x="413.67" y="804.87"/><ellipse cx="446.7365" cy="818.87" fill="#D9D3D0" rx="9" ry="9" style="stroke:#9275B6;stroke-width:1;"/><path d="M448.5647,823.12 Q448.1584,823.3231 447.7053,823.4325 Q447.2522,823.5419 446.7678,823.5419 Q444.9865,823.5419 444.049,822.3856 Q443.1272,821.2138 443.1272,819.0106 Q443.1272,816.7919 444.049,815.6356 Q444.9865,814.4638 446.7678,814.4638 Q447.2522,814.4638 447.7053,814.5731 Q448.174,814.6669 448.5647,814.8856 L448.5647,816.8075 Q448.1272,816.4013 447.7053,816.2138 Q447.2834,816.0106 446.8459,816.0106 Q445.8928,816.0106 445.4084,816.7763 Q444.924,817.5263 444.924,819.0106 Q444.924,820.4794 445.4084,821.2294 Q445.8928,821.9794 446.8459,821.9794 Q447.2834,821.9794 447.7053,821.7919 Q448.1272,821.6044 448.5647,821.1981 L448.5647,823.12 Z " fill="#9275B6"/><text fill="#9275B6" font-family="Verdana" font-size="11" lengthAdjust="spacing" textLength="65.7529" x="463.1958" y="822.6781">Reservation</text><line style="stroke:#3F51B5;stroke-width:1;" x1="414.67" x2="551.0152" y1="832.87" y2="832.87"/><ellipse cx="424.67" cy="844.7723" fill="none" rx="3" ry="3" style="stroke:#9275B6;stroke-width:1;"/><text fill="#9275B6" font-family="Verdana" font-size="11" lengthAdjust="spacing" textLength="44.0537" x="431.67" y="847.0804">id: Long</text><ellipse cx="424.67" cy="857.577" fill="none" rx="3" ry="3" style="stroke:#9275B6;stroke-width:1;"/><text fill="#9275B6" font-family="Verdana" font-size="11" lengthAdjust="spacing" textLength="112.4331" x="431.67" y="859.8851">customer: Customer</text><ellipse cx="424.67" cy="870.3817" fill="none" rx="3" ry="3" style="stroke:#9275B6;stroke-width:1;"/><text fill="#9275B6" font-family="Verdana" font-size="11" lengthAdjust="spacing" textLength="104.6182" x="431.67" y="872.6898">checkIn: LocalDate</text><ellipse cx="424.67" cy="883.1864" fill="none" rx="3" ry="3" style="stroke:#9275B6;stroke-width:1;"/><text fill="#9275B6" font-family="Verdana" font-size="11" lengthAdjust="spacing" textLength="114.3452" x="431.67" y="885.4945">checkOut: LocalDate</text><line style="stroke:#3F51B5;stroke-width:1;" x1="414.67" x2="551.0152" y1="892.0888" y2="892.0888"/></g><!--class RoomRepository--><g class="entity" data-entity="RoomRepository" data-source-line="62" data-uid="ent0009" id="entity_RoomRepository"><rect fill="#F8FAFF" height="56.8047" rx="6" ry="6" style="stroke:#3F51B5;stroke-width:1;" width="246.1914" x="116.75" y="501.64"/><ellipse cx="190.6938" cy="515.64" fill="#D9D3D0" rx="9" ry="9" style="stroke:#9275B6;stroke-width:1;"/><path d="M187.7095,512.9213 L187.7095,511.39 L192.9126,511.39 L192.9126,512.9213 L191.1782,512.9213 L191.1782,518.6088 L192.9126,518.6088 L192.9126,520.14 L187.7095,520.14 L187.7095,518.6088 L189.4438,518.6088 L189.4438,512.9213 L187.7095,512.9213 Z " fill="#9275B6"/><text fill="#9275B6" font-family="Verdana" font-size="11" font-style="italic" lengthAdjust="spacing" textLength="90.8037" x="208.1938" y="519.4481">RoomRepository</text><line style="stroke:#3F51B5;stroke-width:1;" x1="117.75" x2="361.9414" y1="529.64" y2="529.64"/><line style="stroke:#3F51B5;stroke-width:1;" x1="117.75" x2="361.9414" y1="537.64" y2="537.64"/><ellipse cx="127.75" cy="549.5423" fill="#D9D3D0" rx="3" ry="3" style="stroke:#9275B6;stroke-width:1;"/><text fill="#9275B6" font-family="Verdana" font-size="11" lengthAdjust="spacing" textLength="222.1914" x="134.75" y="551.8504">findAvailableByType(type): List&lt;Room&gt;</text></g><!--class ReservationRepository--><g class="entity" data-entity="ReservationRepository" data-source-line="65" data-uid="ent0010" id="entity_ReservationRepository"><rect fill="#F8FAFF" height="56.8047" rx="6" ry="6" style="stroke:#3F51B5;stroke-width:1;" width="272.875" x="622.4" y="501.64"/><ellipse cx="692.7184" cy="515.64" fill="#D9D3D0" rx="9" ry="9" style="stroke:#9275B6;stroke-width:1;"/><path d="M689.734,512.9213 L689.734,511.39 L694.9371,511.39 L694.9371,512.9213 L693.2027,512.9213 L693.2027,518.6088 L694.9371,518.6088 L694.9371,520.14 L689.734,520.14 L689.734,518.6088 L691.4684,518.6088 L691.4684,512.9213 L689.734,512.9213 Z " fill="#9275B6"/><text fill="#9275B6" font-family="Verdana" font-size="11" font-style="italic" lengthAdjust="spacing" textLength="124.7383" x="710.2184" y="519.4481">ReservationRepository</text><line style="stroke:#3F51B5;stroke-width:1;" x1="623.4" x2="894.275" y1="529.64" y2="529.64"/><line style="stroke:#3F51B5;stroke-width:1;" x1="623.4" x2="894.275" y1="537.64" y2="537.64"/><ellipse cx="633.4" cy="549.5423" fill="#D9D3D0" rx="3" ry="3" style="stroke:#9275B6;stroke-width:1;"/><text fill="#9275B6" font-family="Verdana" font-size="11" lengthAdjust="spacing" textLength="248.875" x="640.4" y="551.8504">findActiveByRoom(room): List&lt;Reservation&gt;</text></g><!--class CustomerRepository--><g class="entity" data-entity="CustomerRepository" data-source-line="68" data-uid="ent0011" id="entity_CustomerRepository"><rect fill="#F8FAFF" height="69.6094" rx="6" ry="6" style="stroke:#3F51B5;stroke-width:1;" width="189.0107" x="398.34" y="495.24"/><ellipse cx="433.2072" cy="509.24" fill="#D9D3D0" rx="9" ry="9" style="stroke:#9275B6;stroke-width:1;"/><path d="M430.2228,506.5213 L430.2228,504.99 L435.4259,504.99 L435.4259,506.5213 L433.6916,506.5213 L433.6916,512.2088 L435.4259,512.2088 L435.4259,513.74 L430.2228,513.74 L430.2228,512.2088 L431.9572,512.2088 L431.9572,506.5213 L430.2228,506.5213 Z " fill="#9275B6"/><text fill="#9275B6" font-family="Verdana" font-size="11" font-style="italic" lengthAdjust="spacing" textLength="112.417" x="450.0666" y="513.0481">CustomerRepository</text><line style="stroke:#3F51B5;stroke-width:1;" x1="399.34" x2="586.3507" y1="523.24" y2="523.24"/><line style="stroke:#3F51B5;stroke-width:1;" x1="399.34" x2="586.3507" y1="531.24" y2="531.24"/><ellipse cx="409.34" cy="543.1423" fill="#D9D3D0" rx="3" ry="3" style="stroke:#9275B6;stroke-width:1;"/><text fill="#9275B6" font-family="Verdana" font-size="11" lengthAdjust="spacing" textLength="165.0107" x="416.34" y="545.4504">findByEmail(email): Customer</text><ellipse cx="409.34" cy="555.947" fill="#D9D3D0" rx="3" ry="3" style="stroke:#9275B6;stroke-width:1;"/><text fill="#9275B6" font-family="Verdana" font-size="11" lengthAdjust="spacing" textLength="141.3994" x="416.34" y="558.2551">findAll(): List&lt;Customer&gt;</text></g><!--class RoomService--><g class="entity" data-entity="RoomService" data-source-line="79" data-uid="ent0016" id="entity_RoomService"><rect fill="#F8FAFF" height="69.6094" rx="6" ry="6" style="stroke:#3F51B5;stroke-width:1;" width="206.2681" x="187.71" y="353.63"/><ellipse cx="250.8579" cy="367.63" fill="#D9D3D0" rx="9" ry="9" style="stroke:#9275B6;stroke-width:1;"/><path d="M252.6861,371.88 Q252.2798,372.0831 251.8267,372.1925 Q251.3736,372.3019 250.8892,372.3019 Q249.1079,372.3019 248.1704,371.1456 Q247.2486,369.9738 247.2486,367.7706 Q247.2486,365.5519 248.1704,364.3956 Q249.1079,363.2238 250.8892,363.2238 Q251.3736,363.2238 251.8267,363.3331 Q252.2954,363.4269 252.6861,363.6456 L252.6861,365.5675 Q252.2486,365.1613 251.8267,364.9738 Q251.4048,364.7706 250.9673,364.7706 Q250.0142,364.7706 249.5298,365.5363 Q249.0454,366.2863 249.0454,367.7706 Q249.0454,369.2394 249.5298,369.9894 Q250.0142,370.7394 250.9673,370.7394 Q251.4048,370.7394 251.8267,370.5519 Q252.2486,370.3644 252.6861,369.9581 L252.6861,371.88 Z " fill="#9275B6"/><text fill="#9275B6" font-family="Verdana" font-size="11" lengthAdjust="spacing" textLength="72.4722" x="268.3579" y="371.4381">RoomService</text><line style="stroke:#3F51B5;stroke-width:1;" x1="188.71" x2="392.9781" y1="381.63" y2="381.63"/><line style="stroke:#3F51B5;stroke-width:1;" x1="188.71" x2="392.9781" y1="389.63" y2="389.63"/><ellipse cx="198.71" cy="401.5323" fill="#D9D3D0" rx="3" ry="3" style="stroke:#9275B6;stroke-width:1;"/><text fill="#9275B6" font-family="Verdana" font-size="11" lengthAdjust="spacing" textLength="182.2681" x="205.71" y="403.8404">listAvailable(type?): List&lt;Room&gt;</text><ellipse cx="198.71" cy="414.337" fill="#D9D3D0" rx="3" ry="3" style="stroke:#9275B6;stroke-width:1;"/><text fill="#9275B6" font-family="Verdana" font-size="11" lengthAdjust="spacing" textLength="78.5254" x="205.71" y="416.6451">find(id): Room</text></g><!--class ReservationService--><g class="entity" data-entity="ReservationService" data-source-line="83" data-uid="ent0017" id="entity_ReservationService"><rect fill="#F8FAFF" height="82.4141" rx="6" ry="6" style="stroke:#3F51B5;stroke-width:1;" width="320.0815" x="412.8" y="204.81"/><ellipse cx="515.8874" cy="218.81" fill="#D9D3D0" rx="9" ry="9" style="stroke:#9275B6;stroke-width:1;"/><path d="M517.7155,223.06 Q517.3093,223.2631 516.8562,223.3725 Q516.403,223.4819 515.9187,223.4819 Q514.1374,223.4819 513.1999,222.3256 Q512.278,221.1538 512.278,218.9506 Q512.278,216.7319 513.1999,215.5756 Q514.1374,214.4038 515.9187,214.4038 Q516.403,214.4038 516.8562,214.5131 Q517.3249,214.6069 517.7155,214.8256 L517.7155,216.7475 Q517.278,216.3413 516.8562,216.1538 Q516.4343,215.9506 515.9968,215.9506 Q515.0437,215.9506 514.5593,216.7163 Q514.0749,217.4663 514.0749,218.9506 Q514.0749,220.4194 514.5593,221.1694 Q515.0437,221.9194 515.9968,221.9194 Q516.4343,221.9194 516.8562,221.7319 Q517.278,221.5444 517.7155,221.1381 L517.7155,223.06 Z " fill="#9275B6"/><text fill="#9275B6" font-family="Verdana" font-size="11" lengthAdjust="spacing" textLength="106.4067" x="533.3874" y="222.6181">ReservationService</text><line style="stroke:#3F51B5;stroke-width:1;" x1="413.8" x2="731.8815" y1="232.81" y2="232.81"/><line style="stroke:#3F51B5;stroke-width:1;" x1="413.8" x2="731.8815" y1="240.81" y2="240.81"/><ellipse cx="423.8" cy="252.7123" fill="#D9D3D0" rx="3" ry="3" style="stroke:#9275B6;stroke-width:1;"/><text fill="#9275B6" font-family="Verdana" font-size="11" lengthAdjust="spacing" textLength="296.0815" x="430.8" y="255.0204">create(roomType, name, in, out, guests): Reservation</text><ellipse cx="423.8" cy="265.517" fill="#D9D3D0" rx="3" ry="3" style="stroke:#9275B6;stroke-width:1;"/><text fill="#9275B6" font-family="Verdana" font-size="11" lengthAdjust="spacing" textLength="54.2534" x="430.8" y="267.8251">cancel(id)</text><ellipse cx="423.8" cy="278.3217" fill="#D9D3D0" rx="3" ry="3" style="stroke:#9275B6;stroke-width:1;"/><text fill="#9275B6" font-family="Verdana" font-size="11" lengthAdjust="spacing" textLength="135.3569" x="430.8" y="280.6298">list(): List&lt;Reservation&gt;</text></g><!--class CustomerService--><g class="entity" data-entity="CustomerService" data-source-line="88" data-uid="ent0018" id="entity_CustomerService"><rect fill="#F8FAFF" height="95.2188" rx="6" ry="6" style="stroke:#3F51B5;stroke-width:1;" width="189.0107" x="188.34" y="198.41"/><ellipse cx="232.0526" cy="212.41" fill="#D9D3D0" rx="9" ry="9" style="stroke:#9275B6;stroke-width:1;"/><path d="M233.8808,216.66 Q233.4745,216.8631 233.0214,216.9725 Q232.5683,217.0819 232.0839,217.0819 Q230.3026,217.0819 229.3651,215.9256 Q228.4433,214.7538 228.4433,212.5506 Q228.4433,210.3319 229.3651,209.1756 Q230.3026,208.0038 232.0839,208.0038 Q232.5683,208.0038 233.0214,208.1131 Q233.4901,208.2069 233.8808,208.4256 L233.8808,210.3475 Q233.4433,209.9413 233.0214,209.7538 Q232.5995,209.5506 232.162,209.5506 Q231.2089,209.5506 230.7245,210.3163 Q230.2401,211.0663 230.2401,212.5506 Q230.2401,214.0194 230.7245,214.7694 Q231.2089,215.5194 232.162,215.5194 Q232.5995,215.5194 233.0214,215.3319 Q233.4433,215.1444 233.8808,214.7381 L233.8808,216.66 Z " fill="#9275B6"/><text fill="#9275B6" font-family="Verdana" font-size="11" lengthAdjust="spacing" textLength="94.0854" x="249.5526" y="216.2181">CustomerService</text><line style="stroke:#3F51B5;stroke-width:1;" x1="189.34" x2="376.3507" y1="226.41" y2="226.41"/><line style="stroke:#3F51B5;stroke-width:1;" x1="189.34" x2="376.3507" y1="234.41" y2="234.41"/><ellipse cx="199.34" cy="246.3123" fill="#D9D3D0" rx="3" ry="3" style="stroke:#9275B6;stroke-width:1;"/><text fill="#9275B6" font-family="Verdana" font-size="11" lengthAdjust="spacing" textLength="165.0107" x="206.34" y="248.6204">findByEmail(email): Customer</text><ellipse cx="199.34" cy="259.117" fill="#D9D3D0" rx="3" ry="3" style="stroke:#9275B6;stroke-width:1;"/><text fill="#9275B6" font-family="Verdana" font-size="11" lengthAdjust="spacing" textLength="123.0356" x="206.34" y="261.4251">list(): List&lt;Customer&gt;</text><ellipse cx="199.34" cy="271.9217" fill="#D9D3D0" rx="3" ry="3" style="stroke:#9275B6;stroke-width:1;"/><text fill="#9275B6" font-family="Verdana" font-size="11" lengthAdjust="spacing" textLength="146.7651" x="206.34" y="274.2298">save(customer): Customer</text><ellipse cx="199.34" cy="284.7264" fill="#D9D3D0" rx="3" ry="3" style="stroke:#9275B6;stroke-width:1;"/><text fill="#9275B6" font-family="Verdana" font-size="11" lengthAdjust="spacing" textLength="83.7568" x="206.34" y="287.0345">delete(id): void</text></g><!--class RoomController--><g class="entity" data-entity="RoomController" data-source-line="102" data-uid="ent0024" id="entity_RoomController"><rect fill="#F8FAFF" height="69.6094" rx="6" ry="6" style="stroke:#3F51B5;stroke-width:1;" width="114.1685" x="77.76" y="50.4"/><ellipse cx="90.76" cy="64.4" fill="#D9D3D0" rx="9" ry="9" style="stroke:#9275B6;stroke-width:1;"/><path d="M92.5881,68.65 Q92.1819,68.8531 91.7288,68.9625 Q91.2756,69.0719 90.7913,69.0719 Q89.01,69.0719 88.0725,67.9156 Q87.1506,66.7437 87.1506,64.5406 Q87.1506,62.3219 88.0725,61.1656 Q89.01,59.9937 90.7913,59.9937 Q91.2756,59.9937 91.7288,60.1031 Q92.1975,60.1969 92.5881,60.4156 L92.5881,62.3375 Q92.1506,61.9312 91.7288,61.7437 Q91.3069,61.5406 90.8694,61.5406 Q89.9163,61.5406 89.4319,62.3062 Q88.9475,63.0562 88.9475,64.5406 Q88.9475,66.0094 89.4319,66.7594 Q89.9163,67.5094 90.8694,67.5094 Q91.3069,67.5094 91.7288,67.3219 Q92.1506,67.1344 92.5881,66.7281 L92.5881,68.65 Z " fill="#9275B6"/><text fill="#9275B6" font-family="Verdana" font-size="11" lengthAdjust="spacing" textLength="86.1685" x="102.76" y="68.2081">RoomController</text><line style="stroke:#3F51B5;stroke-width:1;" x1="78.76" x2="190.9285" y1="78.4" y2="78.4"/><ellipse cx="88.76" cy="90.3023" fill="none" rx="3" ry="3" style="stroke:#9275B6;stroke-width:1;"/><text fill="#9275B6" font-family="Verdana" font-size="11" lengthAdjust="spacing" textLength="63.8247" x="95.76" y="92.6104">GET /rooms</text><ellipse cx="88.76" cy="103.107" fill="none" rx="3" ry="3" style="stroke:#9275B6;stroke-width:1;"/><text fill="#9275B6" font-family="Verdana" font-size="11" lengthAdjust="spacing" textLength="70.6245" x="95.76" y="105.4151">POST /rooms</text><line style="stroke:#3F51B5;stroke-width:1;" x1="78.76" x2="190.9285" y1="112.0094" y2="112.0094"/></g><!--class ReservationController--><g class="entity" data-entity="ReservationController" data-source-line="106" data-uid="ent0025" id="entity_ReservationController"><rect fill="#F8FAFF" height="82.4141" rx="6" ry="6" style="stroke:#3F51B5;stroke-width:1;" width="195.6387" x="420.02" y="44"/><ellipse cx="454.411" cy="58" fill="#D9D3D0" rx="9" ry="9" style="stroke:#9275B6;stroke-width:1;"/><path d="M456.2392,62.25 Q455.8329,62.4531 455.3798,62.5625 Q454.9267,62.6719 454.4423,62.6719 Q452.661,62.6719 451.7235,61.5156 Q450.8017,60.3438 450.8017,58.1406 Q450.8017,55.9219 451.7235,54.7656 Q452.661,53.5938 454.4423,53.5938 Q454.9267,53.5938 455.3798,53.7031 Q455.8485,53.7969 456.2392,54.0156 L456.2392,55.9375 Q455.8017,55.5313 455.3798,55.3438 Q454.9579,55.1406 454.5204,55.1406 Q453.5673,55.1406 453.0829,55.9063 Q452.5985,56.6563 452.5985,58.1406 Q452.5985,59.6094 453.0829,60.3594 Q453.5673,61.1094 454.5204,61.1094 Q454.9579,61.1094 455.3798,60.9219 Q455.8017,60.7344 456.2392,60.3281 L456.2392,62.25 Z " fill="#9275B6"/><text fill="#9275B6" font-family="Verdana" font-size="11" lengthAdjust="spacing" textLength="120.103" x="471.1646" y="61.8081">ReservationController</text><line style="stroke:#3F51B5;stroke-width:1;" x1="421.02" x2="614.6587" y1="72" y2="72"/><ellipse cx="431.02" cy="83.9023" fill="none" rx="3" ry="3" style="stroke:#9275B6;stroke-width:1;"/><text fill="#9275B6" font-family="Verdana" font-size="11" lengthAdjust="spacing" textLength="97.7593" x="438.02" y="86.2104">GET /reservations</text><ellipse cx="431.02" cy="96.707" fill="none" rx="3" ry="3" style="stroke:#9275B6;stroke-width:1;"/><text fill="#9275B6" font-family="Verdana" font-size="11" lengthAdjust="spacing" textLength="104.5591" x="438.02" y="99.0151">POST /reservations</text><ellipse cx="431.02" cy="109.5117" fill="none" rx="3" ry="3" style="stroke:#9275B6;stroke-width:1;"/><text fill="#9275B6" font-family="Verdana" font-size="11" lengthAdjust="spacing" textLength="171.6387" x="438.02" y="111.8198">POST /reservations/{id}/cancel</text><line style="stroke:#3F51B5;stroke-width:1;" x1="421.02" x2="614.6587" y1="118.4141" y2="118.4141"/></g><!--class CustomerController--><g class="entity" data-entity="CustomerController" data-source-line="111" data-uid="ent0026" id="entity_CustomerController"><rect fill="#F8FAFF" height="82.4141" rx="6" ry="6" style="stroke:#3F51B5;stroke-width:1;" width="158.6426" x="226.52" y="44"/><ellipse cx="249.8074" cy="58" fill="#D9D3D0" rx="9" ry="9" style="stroke:#9275B6;stroke-width:1;"/><path d="M251.6355,62.25 Q251.2293,62.4531 250.7761,62.5625 Q250.323,62.6719 249.8386,62.6719 Q248.0574,62.6719 247.1199,61.5156 Q246.198,60.3438 246.198,58.1406 Q246.198,55.9219 247.1199,54.7656 Q248.0574,53.5938 249.8386,53.5938 Q250.323,53.5938 250.7761,53.7031 Q251.2449,53.7969 251.6355,54.0156 L251.6355,55.9375 Q251.198,55.5313 250.7761,55.3438 Q250.3543,55.1406 249.9168,55.1406 Q248.9636,55.1406 248.4793,55.9063 Q247.9949,56.6563 247.9949,58.1406 Q247.9949,59.6094 248.4793,60.3594 Q248.9636,61.1094 249.9168,61.1094 Q250.3543,61.1094 250.7761,60.9219 Q251.198,60.7344 251.6355,60.3281 L251.6355,62.25 Z " fill="#9275B6"/><text fill="#9275B6" font-family="Verdana" font-size="11" lengthAdjust="spacing" textLength="107.7817" x="264.0935" y="61.8081">CustomerController</text><line style="stroke:#3F51B5;stroke-width:1;" x1="227.52" x2="384.1626" y1="72" y2="72"/><ellipse cx="237.52" cy="83.9023" fill="none" rx="3" ry="3" style="stroke:#9275B6;stroke-width:1;"/><text fill="#9275B6" font-family="Verdana" font-size="11" lengthAdjust="spacing" textLength="86.9258" x="244.52" y="86.2104">GET /customers</text><ellipse cx="237.52" cy="96.707" fill="none" rx="3" ry="3" style="stroke:#9275B6;stroke-width:1;"/><text fill="#9275B6" font-family="Verdana" font-size="11" lengthAdjust="spacing" textLength="93.7256" x="244.52" y="99.0151">POST /customers</text><ellipse cx="237.52" cy="109.5117" fill="none" rx="3" ry="3" style="stroke:#9275B6;stroke-width:1;"/><text fill="#9275B6" font-family="Verdana" font-size="11" lengthAdjust="spacing" textLength="134.6426" x="244.52" y="111.8198">DELETE /customers/{id}</text><line style="stroke:#3F51B5;stroke-width:1;" x1="227.52" x2="384.1626" y1="118.4141" y2="118.4141"/></g><g class="entity" data-entity="GMN32" data-source-line="127" data-uid="ent0033" id="entity_GMN32"><path d="M768.21,219.08 L768.21,242.09 L733.35,246.09 L768.21,250.09 L768.21,272.955 A6,6 0 0 0 774.21,278.955 L1119.4737,278.955 A6,6 0 0 0 1125.4737,272.955 L1125.4737,223.08 L1115.4737,213.08 L774.21,213.08 A6,6 0 0 0 768.21,219.08" fill="#D9D3D0" style="stroke:#9275B6;stroke-width:1;"/><path d="M1115.4737,213.08 L1115.4737,220.08 A3,3 0 0 0 1118.4737,223.08 L1125.4737,223.08 L1115.4737,213.08" fill="#D9D3D0" style="stroke:#9275B6;stroke-width:1;"/><text fill="#9275B6" font-family="Verdana" font-size="12" lengthAdjust="spacing" textLength="47.7188" x="774.21" y="229.2187">create()</text><text fill="#9275B6" font-family="Verdana" font-size="12" lengthAdjust="spacing" textLength="195.7441" x="778.0245" y="243.1874">1. Find available Room (by type)</text><text fill="#9275B6" font-family="Verdana" font-size="12" lengthAdjust="spacing" textLength="216.375" x="778.0245" y="257.1562">2. Validate date range &amp; availability</text><text fill="#9275B6" font-family="Verdana" font-size="12" lengthAdjust="spacing" textLength="332.4492" x="778.0245" y="271.1249">3. Persist Reservation &amp; update Room state (if needed)</text></g><g class="entity" data-entity="GMN35" data-source-line="134" data-uid="ent0036" id="entity_GMN35"><path d="M11,839.51 L11,865.4475 A6,6 0 0 0 17,871.4475 L234.6816,871.4475 A6,6 0 0 0 240.6816,865.4475 L240.6816,843.51 L230.6816,833.51 L17,833.51 A6,6 0 0 0 11,839.51" fill="#D9D3D0" style="stroke:#9275B6;stroke-width:1;"/><path d="M230.6816,833.51 L230.6816,840.51 A3,3 0 0 0 233.6816,843.51 L240.6816,843.51 L230.6816,833.51" fill="#D9D3D0" style="stroke:#9275B6;stroke-width:1;"/><text fill="#9275B6" font-family="Verdana" font-size="12" lengthAdjust="spacing" textLength="137.0449" x="17" y="849.6487">available = true only if</text><text fill="#9275B6" font-family="Verdana" font-size="12" lengthAdjust="spacing" textLength="208.6816" x="17" y="863.6174">no overlapping active reservations</text></g><!--reverse link Room to Reservation--><g class="link" data-entity-1="Room" data-entity-2="Reservation" data-source-line="56" data-uid="lnk6" id="link_Room_Reservation"><path codeLine="56" d="M410.75,691.09 C424.83,691.09 423.69,691.09 423.69,691.09 C423.69,691.09 423.69,756.92 423.69,804.5" fill="none" id="Room-backto-Reservation" style="stroke:#303F9F;stroke-width:1;"/><polygon fill="none" points="398.75,691.09,404.75,695.09,410.75,691.09,404.75,687.09,398.75,691.09" style="stroke:#303F9F;stroke-width:1;"/><text fill="#9275B6" font-family="Verdana" font-size="12" lengthAdjust="spacing" textLength="54.0586" x="382.69" y="747.4587">bookings</text><text fill="#9275B6" font-family="Verdana" font-size="12" lengthAdjust="spacing" textLength="7.6348" x="406.4656" y="688.5598">1</text><text fill="#9275B6" font-family="Verdana" font-size="12" lengthAdjust="spacing" textLength="6" x="407.7844" y="794.0332">*</text></g><!--reverse link Customer to Reservation--><g class="link" data-entity-1="Customer" data-entity-2="Reservation" data-source-line="57" data-uid="lnk7" id="link_Customer_Reservation"><path codeLine="57" d="M492.84,757.13 C492.84,776.38 492.84,785.9 492.84,804.59" fill="none" id="Customer-backto-Reservation" style="stroke:#303F9F;stroke-width:1;"/><polygon fill="none" points="492.84,745.13,488.84,751.13,492.84,757.13,496.84,751.13,492.84,745.13" style="stroke:#303F9F;stroke-width:1;"/><text fill="#9275B6" font-family="Verdana" font-size="12" lengthAdjust="spacing" textLength="74.5781" x="417.84" y="771.9987">reservations</text><text fill="#9275B6" font-family="Verdana" font-size="12" lengthAdjust="spacing" textLength="7.6348" x="485.4324" y="764.1167">1</text><text fill="#9275B6" font-family="Verdana" font-size="12" lengthAdjust="spacing" textLength="6" x="487.9552" y="794.1376">*</text></g><!--link RoomRepository to Room--><g class="link" data-entity-1="RoomRepository" data-entity-2="Room" data-source-line="72" data-uid="lnk12" id="link_RoomRepository_Room"><path codeLine="72" d="M318.04,558.79 C318.04,582.1 318.04,615.45 318.04,642.81" fill="none" id="RoomRepository-Room" style="stroke:#303F9F;stroke-width:1;stroke-dasharray:7,7;"/></g><!--link ReservationRepository to Reservation--><g class="link" data-entity-1="ReservationRepository" data-entity-2="Reservation" data-source-line="73" data-uid="lnk13" id="link_ReservationRepository_Reservation"><path codeLine="73" d="M758.84,558.93 C758.84,635.36 758.84,837.09 758.84,837.09 C758.84,837.09 634.25,837.09 552.49,837.09" fill="none" id="ReservationRepository-Reservation" style="stroke:#303F9F;stroke-width:1;stroke-dasharray:7,7;"/></g><!--link CustomerRepository to Customer--><g class="link" data-entity-1="CustomerRepository" data-entity-2="Customer" data-source-line="74" data-uid="lnk14" id="link_CustomerRepository_Customer"><path codeLine="74" d="M492.84,565.33 C492.84,586.14 492.84,612.9 492.84,636.36" fill="none" id="CustomerRepository-Customer" style="stroke:#303F9F;stroke-width:1;stroke-dasharray:7,7;"/></g><!--link RoomService to RoomRepository--><g class="link" data-entity-1="RoomService" data-entity-2="RoomRepository" data-source-line="94" data-uid="lnk19" id="link_RoomService_RoomRepository"><path codeLine="94" d="M275.32,423.44 C275.32,447.35 275.32,472.66 275.32,495.16" fill="none" id="RoomService-to-RoomRepository" style="stroke:#303F9F;stroke-width:1;"/><polygon fill="#303F9F" points="275.32,501.16,279.32,492.16,275.32,496.16,271.32,492.16,275.32,501.16" style="stroke:#303F9F;stroke-width:1;"/></g><!--link ReservationService to ReservationRepository--><g class="link" data-entity-1="ReservationService" data-entity-2="ReservationRepository" data-source-line="95" data-uid="lnk20" id="link_ReservationService_ReservationRepository"><path codeLine="95" d="M677.64,287.62 C677.64,346.02 677.64,444.8 677.64,495.29" fill="none" id="ReservationService-to-ReservationRepository" style="stroke:#303F9F;stroke-width:1;"/><polygon fill="#303F9F" points="677.64,501.29,681.64,492.29,677.64,496.29,673.64,492.29,677.64,501.29" style="stroke:#303F9F;stroke-width:1;"/></g><!--link ReservationService to RoomService--><g class="link" data-entity-1="ReservationService" data-entity-2="RoomService" data-source-line="96" data-uid="lnk21" id="link_ReservationService_RoomService"><path codeLine="96" d="M412.41,260.09 C398.5,260.09 389.57,260.09 389.57,260.09 C389.57,260.09 389.57,309.36 389.57,347.36" fill="none" id="ReservationService-to-RoomService" style="stroke:#303F9F;stroke-width:1;"/><polygon fill="#303F9F" points="389.57,353.36,393.57,344.36,389.57,348.36,385.57,344.36,389.57,353.36" style="stroke:#303F9F;stroke-width:1;"/><text fill="#9275B6" font-family="Verdana" font-size="12" lengthAdjust="spacing" textLength="75.3105" x="313.57" y="307.4487">room lookup</text></g><!--link CustomerService to CustomerRepository--><g class="link" data-entity-1="CustomerService" data-entity-2="CustomerRepository" data-source-line="97" data-uid="lnk22" id="link_CustomerService_CustomerRepository"><path codeLine="97" d="M377.72,233.09 C393.88,233.09 405.57,233.09 405.57,233.09 C405.57,233.09 405.57,410.15 405.57,488.81" fill="none" id="CustomerService-to-CustomerRepository" style="stroke:#303F9F;stroke-width:1;"/><polygon fill="#303F9F" points="405.57,494.81,409.57,485.81,405.57,489.81,401.57,485.81,405.57,494.81" style="stroke:#303F9F;stroke-width:1;"/></g><!--link RoomController to RoomService--><g class="link" data-entity-1="RoomController" data-entity-2="RoomService" data-source-line="116" data-uid="lnk27" id="link_RoomController_RoomService"><path codeLine="116" d="M152.23,120.36 C152.23,200.35 152.23,389.09 152.23,389.09 C152.23,389.09 161.33,389.09 181.56,389.09" fill="none" id="RoomController-to-RoomService" style="stroke:#303F9F;stroke-width:1;"/><polygon fill="#303F9F" points="187.56,389.09,178.56,385.09,182.56,389.09,178.56,393.09,187.56,389.09" style="stroke:#303F9F;stroke-width:1;"/></g><!--link ReservationController to ReservationService--><g class="link" data-entity-1="ReservationController" data-entity-2="ReservationService" data-source-line="117" data-uid="lnk28" id="link_ReservationController_ReservationService"><path codeLine="117" d="M517.84,126.62 C517.84,150.53 517.84,174.53 517.84,198.47" fill="none" id="ReservationController-to-ReservationService" style="stroke:#303F9F;stroke-width:1;"/><polygon fill="#303F9F" points="517.84,204.47,521.84,195.47,517.84,199.47,513.84,195.47,517.84,204.47" style="stroke:#303F9F;stroke-width:1;"/></g><!--link CustomerController to CustomerService--><g class="link" data-entity-1="CustomerController" data-entity-2="CustomerService" data-source-line="118" data-uid="lnk29" id="link_CustomerController_CustomerService"><path codeLine="118" d="M301.93,126.62 C301.93,148.49 301.93,169.44 301.93,192.19" fill="none" id="CustomerController-to-CustomerService" style="stroke:#303F9F;stroke-width:1;"/><polygon fill="#303F9F" points="301.93,198.19,305.93,189.19,301.93,193.19,297.93,189.19,301.93,198.19" style="stroke:#303F9F;stroke-width:1;"/></g><!--link RoomController to Room--><g class="link" data-entity-1="RoomController" data-entity-2="Room" data-source-line="122" data-uid="lnk30" id="link_RoomController_Room"><path codeLine="122" d="M97.25,120.4 C97.25,249.71 97.25,691.09 97.25,691.09 C97.25,691.09 196.15,691.09 266.84,691.09" fill="none" id="RoomController-to-Room" style="stroke:#888888;stroke-width:1;"/><polygon fill="#888888" points="272.84,691.09,263.84,687.09,267.84,691.09,263.84,695.09,272.84,691.09" style="stroke:#888888;stroke-width:1;"/><text fill="#9275B6" font-family="Verdana" font-size="12" lengthAdjust="spacing" textLength="49.0723" x="47.25" y="490.6787">view list</text></g><!--link ReservationController to Reservation--><g class="link" data-entity-1="ReservationController" data-entity-2="Reservation" data-source-line="123" data-uid="lnk31" id="link_ReservationController_Reservation"><path codeLine="123" d="M615.94,86.09 C792.01,86.09 1143.47,86.09 1143.47,86.09 C1143.47,86.09 1143.47,869.09 1143.47,869.09 C1143.47,869.09 727.91,869.09 558.29,869.09" fill="none" id="ReservationController-to-Reservation" style="stroke:#888888;stroke-width:1;"/><polygon fill="#888888" points="552.29,869.09,561.29,873.09,557.29,869.09,561.29,865.09,552.29,869.09" style="stroke:#888888;stroke-width:1;"/><text fill="#9275B6" font-family="Verdana" font-size="12" lengthAdjust="spacing" textLength="49.002" x="1093.47" y="506.5487">manage</text></g><!--link Room to GMN35--><g class="link" data-entity-1="Room" data-entity-2="GMN35" data-source-line="134" data-uid="lnk37" id="link_Room_GMN35"><path d="M335.84,738.66 C335.84,786.51 335.84,853.09 335.84,853.09 C335.84,853.09 289.89,853.09 240.98,853.09" fill="none" id="Room-GMN35" style="stroke:#303F9F;stroke-width:1;stroke-dasharray:7,7;"/></g><g class="legend" data-source-line="138"><rect fill="#FAFAFA" height="95.4844" rx="6" ry="6" style="stroke:#BDBDBD;stroke-width:1;" width="349.083" x="782.3889" y="926.09"/><text fill="#9275B6" font-family="Verdana" font-size="14" lengthAdjust="spacing" textLength="57.9619" x="791.8391" y="946.0851">Element</text><text fill="#9275B6" font-family="Verdana" font-size="14" lengthAdjust="spacing" textLength="59.7939" x="938.5384" y="946.0851">Meaning</text><text fill="#9275B6" font-family="Verdana" font-size="14" lengthAdjust="spacing" textLength="137.7988" x="791.8391" y="962.382">Room / Reservation</text><text fill="#9275B6" font-family="Verdana" font-size="14" lengthAdjust="spacing" textLength="146.1934" x="938.5384" y="962.382">Core domain entities</text><text fill="#9275B6" font-family="Verdana" font-size="14" lengthAdjust="spacing" textLength="82.0723" x="791.8391" y="978.6789">*Repository</text><text fill="#9275B6" font-family="Verdana" font-size="14" lengthAdjust="spacing" textLength="183.4834" x="938.5384" y="978.6789">Data access (Spring Data)</text><text fill="#9275B6" font-family="Verdana" font-size="14" lengthAdjust="spacing" textLength="58.7412" x="791.8391" y="994.9757">*Service</text><text fill="#9275B6" font-family="Verdana" font-size="14" lengthAdjust="spacing" textLength="181.6582" x="938.5384" y="994.9757">Business logic / validation</text><text fill="#9275B6" font-family="Verdana" font-size="14" lengthAdjust="spacing" textLength="76.1729" x="791.8391" y="1011.2726">*Controller</text><text fill="#9275B6" font-family="Verdana" font-size="14" lengthAdjust="spacing" textLength="109.8945" x="938.5384" y="1011.2726">HTTP endpoints</text><line style="stroke:#9275B6;stroke-width:1;" x1="787.3889" x2="1126.472" y1="933.09" y2="933.09"/><line style="stroke:#9275B6;stroke-width:1;" x1="787.3889" x2="1126.472" y1="949.3869" y2="949.3869"/><line style="stroke:#9275B6;stroke-width:1;" x1="787.3889" x2="1126.472" y1="965.6838" y2="965.6838"/><line style="stroke:#9275B6;stroke-width:1;" x1="787.3889" x2="1126.472" y1="981.9806" y2="981.9806"/><line style="stroke:#9275B6;stroke-width:1;" x1="787.3889" x2="1126.472" y1="998.2775" y2="998.2775"/><line style="stroke:#9275B6;stroke-width:1;" x1="787.3889" x2="1126.472" y1="1014.5744" y2="1014.5744"/><line style="stroke:#9275B6;stroke-width:1;" x1="787.3889" x2="787.3889" y1="933.09" y2="1014.5744"/><line style="stroke:#9275B6;stroke-width:1;" x1="934.0882" x2="934.0882" y1="933.09" y2="1014.5744"/><line style="stroke:#9275B6;stroke-width:1;" x1="1126.472" x2="1126.472" y1="933.09" y2="1014.5744"/></g><!--SRC=[ZLTjRzis4FxkNt5pWKxfOiTk4CmrrWvnOhV3iZQ8W-t3i0-qT9Q9KAH0KWxSElzzHygoATagQWD-kJi-T-Jpa3pzP5UO8MGyGvLgbgywFyD7nSGOhdePbuL5Y5MMQroXD5n9I3YZk0oYM6c4H6MCItWDIw6UpHaD_XCn1oN51j0Ob9Op0SnQpHU4PSxX2JUWqUIAu1PSSCkTbSc4h89PIc5MF3VzJiSySPapbsl1ugTKgq8cDqee3Qzc_XL4c1LBr3ENAIoPC1XuTiEqH0t3ju53S8bsaoCeRLSgSEIKZQKujnk1L5HicKn529dWaXN2pfIqS_uL7MpWZGKp1hvr02P7POzcrrGsUPHEKE-ibxEhuUIAhDTQg-VAEBYSlNEXOHOAgLRoO1vsNeBiN5hKInPZImK3MhTHiuB1OFJkrqaD1sMHjK0Gm7JOX9ZD9fU3GGr2O8f4wscGQ_TkWanktPj0I4Vlco-uSOAxBGLtvEtiM8Dk6T7rUKik7fGgvmBm2_1a37TAfhk_JW5ZcDEgxasvvZ7PRbMn8DfB6ripBXZz7rF5IY2JvA0wgnGtXR4g8ucrf5aMGdncMJCLKgcYcNwbP3EE9v-BR84wC0V97z2WNlkzqvO_tjKttbTQELOOF_qXNN3Cn2sp63g-5BRkyLdzUdQ7NL2z7dJVT6i5Z66X56aWDHIvNvRsQ7tuPqup3_Ue3JSM9QcwdVSWgYJ_i1LSmG-OAyEjqflz6YsvJAuhOYURHv92vFHmHdCcfD_Si0z-qZMmGy5jcB7bQm9quoDD7tl0mz1Zt6gjMa0dcwaJI-GbStR4eyyhH5IbgjnLdiOIzFlUuXmdf-Fy1qV0P3rcNyHfukO4G7l9V8UrAgIvNtVs_H88cjIUAy_IxqsQgcM8U4AktVHUJksI9dYiaUJjgN8YE0T9M_MSk3a7LTXpI0iqrZZGsfhueOpq9bpAeD3eEuJNpujc9J_0T2r1IBDp6hR6gDhinsCJ54WJzGkqLZm9n55LqkjzQ8YbBf9Qt2djV2SyI4CRtvqYWiwA8W_q5SOVQwv5P__W0kxOXiwPTg6vcEY6RasjXA2Zugofk8DlpyR7wIDSk3hDpd3_PHvOJcgh5IOyvsfeF-Au-CQJbujIR2U5r9Qsqa8TkcczdTvD7wU1tUSBr170DvYiqzsCEn92G7KZjg605gflj3Ac9ppPC-evZnblblllgz5ez5zPCybkpV7Pxw5EIzdx-DerbJ59Cd8bVUBfgYTmZO9WbXXlOceJfQBhqNs09hS5jJmrzzqvGqV5i0ypskg7lg8iBrfiV4T24M_xy3SJFA41u3yqjQ58dVPkY6kTQQzTzglhiLRmQoXoFyh36kj-Hdm94Z51EgjSO-PhBejUA4jhxwjsn-QXglTWTO5bFy-N50ngZLgmF7UzDlCNNVqAFo3l-Z-_89qjJ0KzQ4WBM_YBsYStV4jMNzz5hVPjsUdj7YtS8uHxHl3HRuBhPmlKap2gWMuF0z4yTusHjvsLiTLHieL9OQZPfoYXKXvJkdMviZwR2mtutyAdnyTxIflaYYvdbvT-btDnzCzvbXFlF2w7wqAW6SEA9mbAC6Yjsprf-KqNYPAzMDC4g8MYmnr5Oa1bdBp9EO4j5UquS33Xim-nHvF9c3v-Kkh_3m00]--></g></svg>